<svg width="29" height="29" viewBox="0 0 29 29" fill="none" xmlns="http://www.w3.org/2000/svg">
<path d="M14.5 29C11.6322 29 8.82875 28.1496 6.44424 26.5563C4.05972 24.963 2.20122 22.6984 1.10375 20.0489C0.0062826 17.3994 -0.280866 14.4839 0.27862 11.6712C0.838105 8.85847 2.2191 6.27482 4.24696 4.24696C6.27482 2.2191 8.85847 0.838105 11.6712 0.27862C14.4839 -0.280866 17.3994 0.0062826 20.0489 1.10375C22.6984 2.20122 24.963 4.05972 26.5563 6.44424C28.1496 8.82875 29 11.6322 29 14.5C29 18.3456 27.4723 22.0338 24.753 24.753C22.0338 27.4723 18.3456 29 14.5 29ZM14.5 2.07143C12.0419 2.07143 9.63893 2.80036 7.59506 4.16603C5.55119 5.53169 3.95819 7.47277 3.0175 9.7438C2.07681 12.0148 1.83069 14.5138 2.31025 16.9247C2.78981 19.3356 3.97351 21.5502 5.71168 23.2883C7.44984 25.0265 9.6644 26.2102 12.0753 26.6898C14.4862 27.1693 16.9852 26.9232 19.2562 25.9825C21.5272 25.0418 23.4683 23.4488 24.834 21.4049C26.1996 19.3611 26.9286 16.9581 26.9286 14.5C26.9286 11.2037 25.6191 8.04249 23.2883 5.71168C20.9575 3.38087 17.7963 2.07143 14.5 2.07143Z" fill="black"/>
<path d="M19.254 20.7142L13.4644 14.9245V5.17847H15.5358V14.0649L20.7144 19.2538L19.254 20.7142Z" fill="black"/>
</svg>
