<svg width="29" height="29" viewBox="0 0 29 29" fill="none" xmlns="http://www.w3.org/2000/svg">
<g filter="url(#filter0_i)">
<path d="M15.5875 12.6875C14.8625 12.5063 14.1375 12.1437 13.5938 11.6C13.05 11.4187 12.8688 10.875 12.8688 10.5125C12.8688 10.15 13.05 9.60625 13.4125 9.425C13.9562 9.0625 14.5 8.7 15.0438 8.88125C16.1313 8.88125 17.0375 9.425 17.5812 10.15L19.2125 7.975C18.6688 7.43125 18.125 7.06875 17.5812 6.70625C17.0375 6.34375 16.3125 6.1625 15.5875 6.1625V3.625H13.4125V6.1625C12.5062 6.34375 11.6 6.8875 10.875 7.6125C10.15 8.51875 9.60625 9.60625 9.7875 10.6938C9.7875 11.7812 10.15 12.8687 10.875 13.5938C11.7812 14.5 13.05 15.0438 14.1375 15.5875C14.6813 15.7688 15.4062 16.1313 15.95 16.4938C16.3125 16.8563 16.4938 17.4 16.4938 17.9437C16.4938 18.4875 16.3125 19.0312 15.95 19.575C15.4062 20.1187 14.6813 20.3 14.1375 20.3C13.4125 20.3 12.5063 20.1187 11.9625 19.575C11.4188 19.2125 10.875 18.6688 10.5125 18.125L8.7 20.1188C9.24375 20.8438 9.7875 21.3875 10.5125 21.9313C11.4188 22.475 12.5063 23.0187 13.5938 23.0187V25.375H15.5875V22.6562C16.675 22.475 17.5813 21.9312 18.3063 21.2062C19.2125 20.3 19.7562 18.85 19.7562 17.5812C19.7562 16.4937 19.3937 15.225 18.4875 14.5C17.5812 13.5938 16.675 13.05 15.5875 12.6875ZM14.5 0C6.525 0 0 6.525 0 14.5C0 22.475 6.525 29 14.5 29C22.475 29 29 22.475 29 14.5C29 6.525 22.475 0 14.5 0ZM14.5 27.0062C7.6125 27.0062 1.99375 21.3875 1.99375 14.5C1.99375 7.6125 7.6125 1.99375 14.5 1.99375C21.3875 1.99375 27.0062 7.6125 27.0062 14.5C27.0062 21.3875 21.3875 27.0062 14.5 27.0062Z" fill="black"/>
</g>
<defs>
<filter id="filter0_i" x="0" y="0" width="29" height="33" filterUnits="userSpaceOnUse" color-interpolation-filters="sRGB">
<feFlood flood-opacity="0" result="BackgroundImageFix"/>
<feBlend mode="normal" in="SourceGraphic" in2="BackgroundImageFix" result="shape"/>
<feColorMatrix in="SourceAlpha" type="matrix" values="0 0 0 0 0 0 0 0 0 0 0 0 0 0 0 0 0 0 127 0" result="hardAlpha"/>
<feOffset dy="4"/>
<feGaussianBlur stdDeviation="2"/>
<feComposite in2="hardAlpha" operator="arithmetic" k2="-1" k3="1"/>
<feColorMatrix type="matrix" values="0 0 0 0 0 0 0 0 0 0 0 0 0 0 0 0 0 0 0.25 0"/>
<feBlend mode="normal" in2="shape" result="effect1_innerShadow"/>
</filter>
</defs>
</svg>
