<svg width="24" height="25" viewBox="0 0 24 25" fill="none" xmlns="http://www.w3.org/2000/svg">
<path d="M23.9227 7.31711C23.9093 6.3094 23.7203 5.31171 23.3643 4.36867C23.0556 3.57322 22.584 2.8508 21.9798 2.24759C21.3756 1.64437 20.652 1.17361 19.8552 0.865398C18.9227 0.515945 17.9376 0.326989 16.9418 0.306577C15.6597 0.249365 15.2532 0.233398 11.9987 0.233398C8.74411 0.233398 8.32697 0.233399 7.0542 0.306577C6.05885 0.327139 5.07421 0.516092 4.14216 0.865398C3.34526 1.1734 2.62153 1.64408 2.01728 2.24732C1.41303 2.85057 0.941567 3.57309 0.633052 4.36867C0.282316 5.29888 0.093456 6.28211 0.0746335 7.27587C0.0173256 8.55716 0 8.96297 0 12.2121C0 15.4613 -9.92969e-09 15.8764 0.0746335 17.1484C0.0946246 18.1436 0.282541 19.1255 0.633052 20.0582C0.942085 20.8535 1.4139 21.5758 2.01835 22.1788C2.6228 22.7818 3.3466 23.2522 4.14349 23.5602C5.07299 23.9237 6.0578 24.1261 7.05553 24.1589C8.33896 24.2161 8.74545 24.2334 12 24.2334C15.2546 24.2334 15.6717 24.2334 16.9445 24.1589C17.9402 24.1393 18.9254 23.9508 19.8578 23.6014C20.6544 23.2928 21.3778 22.8219 21.982 22.2188C22.5862 21.6156 23.0579 20.8934 23.3669 20.0981C23.7175 19.1668 23.9054 18.1848 23.9254 17.1883C23.9827 15.9083 24 15.5025 24 12.252C23.9973 9.00289 23.9973 8.59042 23.9227 7.31711ZM11.9907 18.3565C8.58685 18.3565 5.82941 15.6036 5.82941 12.2055C5.82941 8.8073 8.58685 6.05444 11.9907 6.05444C13.6247 6.05444 15.1919 6.7025 16.3473 7.85603C17.5028 9.00957 18.1519 10.5741 18.1519 12.2055C18.1519 13.8368 17.5028 15.4013 16.3473 16.5549C15.1919 17.7084 13.6247 18.3565 11.9907 18.3565ZM18.3972 7.26123C17.6015 7.26123 16.9605 6.61992 16.9605 5.82692C16.9605 5.63866 16.9976 5.45223 17.0698 5.27829C17.1419 5.10436 17.2477 4.94631 17.3811 4.81319C17.5144 4.68006 17.6727 4.57446 17.8469 4.50241C18.0212 4.43037 18.2079 4.39328 18.3965 4.39328C18.5851 4.39328 18.7718 4.43037 18.946 4.50241C19.1203 4.57446 19.2786 4.68006 19.4119 4.81319C19.5453 4.94631 19.651 5.10436 19.7232 5.27829C19.7954 5.45223 19.8325 5.63866 19.8325 5.82692C19.8325 6.61992 19.1901 7.26123 18.3972 7.26123Z" fill="white"/>
</svg>
