<svg width="24" height="25" viewBox="0 0 24 25" fill="none" xmlns="http://www.w3.org/2000/svg">
<path d="M12 0.233398C5.3725 0.233398 0 5.6059 0 12.2334C0 18.8609 5.3725 24.2334 12 24.2334C18.6275 24.2334 24 18.8609 24 12.2334C24 5.6059 18.6275 0.233398 12 0.233398ZM9.0625 17.2071H6.6325V9.38715H9.0625V17.2071ZM7.8325 8.42715C7.065 8.42715 6.56875 7.8834 6.56875 7.2109C6.56875 6.52465 7.08 5.99715 7.86375 5.99715C8.6475 5.99715 9.1275 6.52465 9.1425 7.2109C9.1425 7.8834 8.6475 8.42715 7.8325 8.42715ZM17.9375 17.2071H15.5075V12.8734C15.5075 11.8646 15.155 11.1796 14.2763 11.1796C13.605 11.1796 13.2063 11.6434 13.03 12.0896C12.965 12.2484 12.9488 12.4734 12.9488 12.6971V17.2059H10.5175V11.8809C10.5175 10.9046 10.4862 10.0884 10.4537 9.3859H12.565L12.6763 10.4721H12.725C13.045 9.96215 13.8288 9.20965 15.14 9.20965C16.7388 9.20965 17.9375 10.2809 17.9375 12.5834V17.2071Z" fill="white"/>
</svg>
