<svg width="25" height="21" viewBox="0 0 25 21" fill="none" xmlns="http://www.w3.org/2000/svg">
<path d="M24.71 2.66033C23.8013 3.07045 22.8251 3.34756 21.7989 3.47281C22.8578 2.82747 23.65 1.81179 24.0277 0.615273C23.0328 1.21714 21.944 1.64079 20.8086 1.8678C20.045 1.03744 19.0337 0.487057 17.9316 0.302113C16.8295 0.117169 15.6982 0.308007 14.7135 0.844999C13.7288 1.38199 12.9457 2.23509 12.4858 3.27185C12.0258 4.30862 11.9148 5.47103 12.17 6.57863C10.1542 6.47554 8.18221 5.94189 6.38201 5.01231C4.58181 4.08273 2.99363 2.778 1.72054 1.18279C1.28523 1.94761 1.03493 2.83435 1.03493 3.77873C1.03445 4.6289 1.24 5.46603 1.63334 6.21588C2.02669 6.96572 2.59567 7.60508 3.28981 8.07723C2.4848 8.05114 1.69755 7.82959 0.99358 7.43101V7.49752C0.993499 8.6899 1.39845 9.8456 2.13972 10.7685C2.88098 11.6914 3.91291 12.3247 5.0604 12.5608C4.31362 12.7667 3.53068 12.797 2.77071 12.6495C3.09446 13.6755 3.7251 14.5727 4.57435 15.2154C5.4236 15.8582 6.44893 16.2144 7.50681 16.2342C5.711 17.67 3.49319 18.4489 1.21014 18.4455C0.805726 18.4456 0.40165 18.4215 0 18.3734C2.31742 19.8911 5.01507 20.6965 7.77017 20.6934C17.0965 20.6934 22.195 12.8257 22.195 6.00225C22.195 5.78056 22.1896 5.55666 22.1798 5.33497C23.1715 4.60449 24.0276 3.69992 24.7078 2.66365L24.71 2.66033Z" fill="white"/>
</svg>
