<svg width="28" height="20" viewBox="0 0 28 20" fill="none" xmlns="http://www.w3.org/2000/svg">
<path d="M19.25 13.2998C18.9715 13.2998 18.7044 13.4104 18.5075 13.6073C18.3106 13.8042 18.2 14.0712 18.2 14.3496C18.2 14.628 18.3106 14.8951 18.5075 15.0919C18.7044 15.2888 18.9715 15.3994 19.25 15.3994H22.75C23.0285 15.3994 23.2955 15.2888 23.4924 15.0919C23.6894 14.8951 23.8 14.628 23.8 14.3496C23.8 14.0712 23.6894 13.8042 23.4924 13.6073C23.2955 13.4104 23.0285 13.2998 22.75 13.2998H19.25Z" fill="black"/>
<path d="M3.20833 0C2.35743 0 1.54138 0.338022 0.939699 0.939707C0.33802 1.54139 0 2.35745 0 3.20836V16.6251C0 17.476 0.33802 18.2921 0.939699 18.8938C1.54138 19.4955 2.35743 19.8335 3.20833 19.8335H24.7917C25.6426 19.8335 26.4586 19.4955 27.0603 18.8938C27.662 18.2921 28 17.476 28 16.6251V3.20836C28 2.35745 27.662 1.54139 27.0603 0.939707C26.4586 0.338022 25.6426 0 24.7917 0H3.20833ZM1.75 16.6251V7.5834H26.25V16.6251C26.25 17.4301 25.5967 18.0835 24.7917 18.0835H3.20833C2.40333 18.0835 1.75 17.4301 1.75 16.6251ZM1.75 5.83338V3.20836C1.75 2.40335 2.40333 1.75001 3.20833 1.75001H24.7917C25.5967 1.75001 26.25 2.40335 26.25 3.20836V5.83338H1.75Z" fill="black"/>
</svg>
